<svg width="14" height="14" viewBox="0 0 14 14" fill="none" xmlns="http://www.w3.org/2000/svg">
<path d="M6.99996 6.41667C7.46145 6.41667 7.91257 6.27982 8.29629 6.02343C8.68 5.76704 8.97907 5.40262 9.15568 4.97626C9.33228 4.5499 9.37849 4.08075 9.28846 3.62812C9.19843 3.1755 8.9762 2.75974 8.64988 2.43342C8.32355 2.1071 7.90779 1.88487 7.45517 1.79484C7.00255 1.7048 6.53339 1.75101 6.10703 1.92762C5.68067 2.10422 5.31625 2.40329 5.05986 2.787C4.80347 3.17072 4.66663 3.62184 4.66663 4.08333C4.66663 4.70217 4.91246 5.29567 5.35004 5.73325C5.78763 6.17084 6.38112 6.41667 6.99996 6.41667Z" fill="#F25822" fill-opacity="0.5"/>
<path d="M10.5 12.2499C10.6547 12.2499 10.803 12.1885 10.9124 12.0791C11.0218 11.9697 11.0833 11.8213 11.0833 11.6666C11.0833 10.5836 10.6531 9.54501 9.88731 8.77923C9.12154 8.01346 8.08293 7.58325 6.99996 7.58325C5.91699 7.58325 4.87838 8.01346 4.11261 8.77923C3.34683 9.54501 2.91663 10.5836 2.91663 11.6666C2.91663 11.8213 2.97808 11.9697 3.08748 12.0791C3.19688 12.1885 3.34525 12.2499 3.49996 12.2499H10.5Z" fill="#F25822" fill-opacity="0.5"/>
</svg>
